<svg width="1500.000000" height="1500.000000" viewBox="0 0 1500 1500" fill="none" xmlns="http://www.w3.org/2000/svg" xmlns:xlink="http://www.w3.org/1999/xlink">
	<desc>
			Created with Pixso.
	</desc>
	<defs>
		<clipPath id="clip2_2">
			<rect id="logo" width="1500.000000" height="1500.000000" fill="white" fill-opacity="0"/>
		</clipPath>
	</defs>
	<g clip-path="url(#clip2_2)">
		<path id="path" d="M0 0C495 0 990 0 1500 0C1500 495 1500 990 1500 1500C1005 1500 510 1500 0 1500C0 1005 0 510 0 0Z" fill="#545C64" fill-opacity="1.000000" fill-rule="nonzero"/>
		<path id="path" d="M434 703C438.283 702.874 442.564 702.785 446.848 702.725C448.298 702.701 449.747 702.667 451.197 702.623C457.649 702.432 463.939 702.322 470.212 704.023C475.995 705.814 481.348 707.98 486.5 711.188C489.775 713.712 492.375 716.396 494.875 719.688C497.695 724.193 499.566 728.625 501.184 733.676C502.555 739.263 502.594 744.709 502.5 750.438C502.48 752.22 502.48 752.22 502.459 754.039C502.318 760.022 502.06 765.712 500.5 771.5C498.476 776.667 495.692 781.212 492.25 785.559C489.38 788.673 486.537 791.22 482.93 793.448C478.195 795.957 473.266 797.471 468.042 798.644C461.648 799.759 455.086 799.401 448.625 799.25C447.099 799.23 445.573 799.212 444.047 799.195C440.364 799.152 436.682 799.083 433 799C431.68 797.35 430.36 795.7 429 794C429 765.62 429 737.24 429 708C430.65 706.35 432.3 704.7 434 703Z" fill="#FFC702" fill-opacity="1.000000" fill-rule="nonzero"/>
		<path id="path" d="M782 703C786.29 703 790.58 703 795 703C796.98 703.99 798.96 704.98 801 706C804.865 714.13 807.637 722.552 810.422 731.094C810.932 732.651 811.442 734.209 811.952 735.766C813.014 739.016 814.073 742.267 815.128 745.519C816.477 749.669 817.842 753.813 819.211 757.955C820.268 761.165 821.313 764.378 822.356 767.592C822.854 769.121 823.356 770.648 823.863 772.175C827.807 784.073 827.807 784.073 828.3 788.997C828.306 791.506 828.306 791.506 828 795C826.35 796.32 824.7 797.64 823 799C820.36 799.33 817.72 799.66 815 800C813.35 798.35 811.7 796.7 810 795C809.535 793.544 809.079 792.085 808.625 790.625C808.37 789.813 808.115 789.001 807.852 788.164C806.685 783.829 805.88 779.403 805 775C794.44 775 783.88 775 773 775C772.01 779.29 771.02 783.58 770 788C769.043 791.014 768.06 794.021 767 797C765.68 797.99 764.36 798.98 763 800C761.02 800 759.04 800 757 800C755.02 798.68 753.04 797.36 751 796C750.67 795.34 750.34 794.68 750 794C750.261 790.024 750.568 786.356 751.781 782.551C752.466 780.747 753.157 778.945 753.852 777.145C755.11 773.7 756.129 770.214 757.125 766.688C759.687 757.705 762.677 748.867 765.67 740.021C768.665 731.166 771.458 722.309 773.77 713.25C775 710 775 710 776.177 708.273C777.38 706.788 778.685 705.387 780 704C780.66 703.67 781.32 703.34 782 703Z" fill="#FFC804" fill-opacity="1.000000" fill-rule="nonzero"/>
		<path id="path" d="M264.668 700.68C267.9 700.479 270.785 700.574 274 701C276.855 701.737 279.609 702.669 282.375 703.688C283.041 703.931 283.707 704.175 284.393 704.426C287.087 705.498 289.462 706.606 291.81 708.323C293.239 709.51 294.625 710.75 296 712C296 713.65 296 715.3 296 717C293 720 293 720 290 723C286.875 722.688 286.875 722.688 283 722C281.02 721.01 279.04 720.02 277 719C271.72 719 266.44 719 261 719C258.525 720.485 258.525 720.485 256 722C255.67 722.66 255.34 723.32 255 724C255 726.31 255 728.62 255 731C256.32 732.65 257.64 734.3 259 736C259.715 736.307 260.431 736.614 261.168 736.93C264.448 738.343 267.724 739.765 271 741.188C272.125 741.67 273.251 742.153 274.41 742.65C280.569 745.334 286.553 748.026 292 752C294.363 754.108 296.198 756.4 298 759C299.875 762.312 299.875 762.312 301 766C301.407 769.401 301.371 772.596 301 776C300.403 779.251 299.505 782.054 298 785C295.117 789.127 291.668 792.657 287.75 795.812C285.017 797.591 282.284 798.792 279.188 799.812C272.743 801.331 266.267 801.71 259.664 801.488C254.164 801.081 249.326 799.464 244.214 797.487C241.185 796.21 238.688 794.767 236.051 792.797C235.374 792.204 234.697 791.611 234 791C233.67 790.34 233.34 789.68 233 789C233 787.02 233 785.04 233 783C235.31 780.69 237.62 778.38 240 776C242.738 776.431 245.005 777.002 247.535 778.156C248.786 778.821 248.786 778.821 250.062 779.5C252.303 780.687 254.463 781.811 256.855 782.652C259.997 783.162 263.07 783.092 266.25 783.062C267.513 783.053 268.777 783.044 270.078 783.035C271.524 783.018 271.524 783.018 273 783C274.65 782.01 276.3 781.02 278 780C278.66 778.68 279.32 777.36 280 776C280 774.02 280 772.04 280 770C278.396 767.998 277.022 766.561 275 765C270.997 762.947 266.85 761.265 262.688 759.562C255.804 756.742 249.432 754.051 243.579 749.398C240.958 747.078 239.024 744.891 237 742C235.627 739.392 234.678 736.869 234 734C233.6 730.922 233.622 728.08 234 725C234.646 721.794 235.578 718.946 237 716C238.697 713.261 240.58 711.125 243 709C246.831 706.172 250.742 703.829 255.223 702.184C258.349 701.372 261.467 701.064 264.668 700.68Z" fill="#FFC704" fill-opacity="1.000000" fill-rule="nonzero"/>
		<path id="path" d="M952 724.562C952.838 724.542 953.676 724.523 954.539 724.502C957.089 724.504 959.478 724.622 962 725C965.169 726.05 968.108 727.332 971 729C973.87 731.424 975.917 733.891 978.188 736.875C979.735 739.542 980.803 741.895 981.605 744.86C982.418 749.264 982.241 753.721 982.195 758.184C982.193 759.239 982.19 760.295 982.187 761.382C982.176 764.734 982.151 768.086 982.125 771.438C982.115 773.718 982.106 775.999 982.098 778.279C982.076 783.853 982.042 789.426 982 795C980.35 796.65 978.7 798.3 977 800C974.69 800 972.38 800 970 800C967.665 797.743 965.813 795.719 964 793C963.408 793.41 962.817 793.82 962.207 794.242C961.417 794.781 960.627 795.32 959.812 795.875C959.035 796.409 958.258 796.942 957.457 797.492C954.953 799.029 952.812 800.14 950 801C946.449 801.195 946.449 801.195 942.688 801.125C941.433 801.107 940.179 801.089 938.887 801.07C937.934 801.047 936.981 801.024 936 801C932.803 799.463 930.111 798.092 927.375 795.812C924.486 792.392 922.861 789.066 921 785C921 781.37 921 777.74 921 774C922.32 771.36 923.64 768.72 925 766C929.497 762.403 933.835 759.113 939.164 756.879C945.603 754.884 952.332 753.906 959 753C960.32 753 961.64 753 963 753C962.01 750.03 961.02 747.06 960 744C958.02 743.01 956.04 742.02 954 741C950.316 740.82 946.682 740.746 943 741C940.945 741.609 940.945 741.609 939.188 742.5C938.136 742.995 937.084 743.49 936 744C932.562 744.188 932.562 744.188 930 744C928.68 742.68 927.36 741.36 926 740C926 738.02 926 736.04 926 734C926.962 733.045 927.946 732.112 928.938 731.188C929.755 730.404 929.755 730.404 930.59 729.605C933.467 727.689 936.221 726.611 939.514 725.587C943.683 724.603 947.733 724.526 952 724.562Z" fill="#FFC703" fill-opacity="1.000000" fill-rule="nonzero"/>
		<path id="path" d="M688 725C691.59 725.958 694.765 727.179 698 729C699.105 730.083 700.182 731.193 701.25 732.312C701.853 732.927 702.457 733.542 703.078 734.176C705.425 737.624 706.762 741.038 708.15 744.96C709.48 749.719 709.497 754.225 709.391 759.137C709.385 760.142 709.379 761.148 709.374 762.184C709.351 765.352 709.301 768.519 709.25 771.688C709.23 773.854 709.212 776.02 709.195 778.186C709.151 783.457 709.085 788.729 709 794C708.01 795.65 707.02 797.3 706 799C701.545 799.495 701.545 799.495 697 800C695.35 798.35 693.7 796.7 692 795C692 794.01 692 793.02 692 792C691.443 792.398 690.886 792.797 690.312 793.207C686.176 796.079 682.109 798.881 677.328 800.543C672.285 801.533 667.111 801.21 662 801C658.896 799.129 655.886 797.195 653 795C651.26 793.049 650.246 791.336 649 789C648 786 648 786 647.902 782.863C647.914 781.692 647.926 780.52 647.938 779.312C647.947 778.133 647.956 776.953 647.965 775.738C647.976 774.835 647.988 773.931 648 773C650.145 769.24 652.196 765.783 655.312 762.75C660.076 759.648 664.354 757.495 669.793 755.859C671.193 755.483 672.596 755.113 674 754.75C674.996 754.487 674.996 754.487 676.013 754.219C680.774 753.058 685.102 752.847 690 753C689.01 750.03 688.02 747.06 687 744C685.02 743.01 683.04 742.02 681 741C677.315 740.817 673.683 740.754 670 741C667.136 741.762 664.713 742.772 662 744C659.69 743.67 657.38 743.34 655 743C654.34 742.01 653.68 741.02 653 740C653 738.02 653 736.04 653 734C655.184 731.765 657.454 729.816 660 728C662.277 726.82 664.377 726.109 666.863 725.473C673.829 724.423 680.993 724.199 688 725Z" fill="#FFC703" fill-opacity="1.000000" fill-rule="nonzero"/>
		<path id="path" d="M546.875 724.625C547.722 724.6 548.569 724.576 549.441 724.551C552.022 724.539 554.444 724.635 557 725C561.216 726.423 564.966 728.365 568.75 730.688C571.451 733.464 573.149 736.389 574.984 739.781C575.958 741.909 576.533 743.713 577 746C577.085 747.649 577.118 749.301 577.114 750.952C577.114 751.933 577.113 752.914 577.113 753.924C577.108 754.975 577.103 756.026 577.098 757.109C577.096 758.191 577.095 759.273 577.093 760.388C577.088 763.842 577.075 767.296 577.062 770.75C577.057 773.092 577.053 775.435 577.049 777.777C577.038 783.518 577.021 789.259 577 795C575.35 796.65 573.7 798.3 572 800C569.69 800 567.38 800 565 800C563.68 798.68 562.36 797.36 561 796C561 794.68 561 793.36 561 792C560.264 792.482 559.528 792.964 558.77 793.461C557.794 794.093 556.818 794.724 555.812 795.375C554.85 796.001 553.887 796.628 552.895 797.273C550.227 798.865 547.968 800.106 545 801C541.449 801.195 541.449 801.195 537.688 801.125C536.433 801.107 535.179 801.089 533.887 801.07C532.934 801.047 531.981 801.024 531 801C528.52 799.76 526.278 798.561 524 797C521.057 794.197 518.7 791.177 516.625 787.688C515.647 783.482 515.85 779.297 516 775C517.205 772.138 518.369 769.624 520 767C522.416 764.278 525.014 762.077 528 760C532.61 757.417 537.515 755.556 542.672 754.371C547.743 753.563 552.877 753.297 558 753C557.34 750.36 556.68 747.72 556 745C554.694 743.964 553.356 742.969 552 742C549.136 740.914 549.136 740.914 546.547 740.797C543.67 740.749 540.869 740.759 538 741C535.954 741.616 535.954 741.616 534.188 742.5C533.136 742.995 532.084 743.49 531 744C527.562 744.188 527.562 744.188 525 744C523.68 742.35 522.36 740.7 521 739C521.33 737.02 521.66 735.04 522 733C523.177 732.028 524.367 731.073 525.562 730.125C526.554 729.324 526.554 729.324 527.566 728.508C530 727 530 727 533.16 725.828C537.799 724.828 542.144 724.632 546.875 724.625Z" fill="#FFC703" fill-opacity="1.000000" fill-rule="nonzero"/>
		<path id="path" d="M881.312 724.688C884.576 724.728 887.463 724.862 890.625 725.676C892.452 726.364 894.234 727.169 896 728C898.845 731.153 900.866 733.727 902.75 737.562C903.803 740.459 904.501 742.978 905 746C905.082 747.656 905.118 749.315 905.114 750.974C905.113 752.415 905.113 752.415 905.113 753.885C905.108 754.909 905.103 755.933 905.098 756.988C905.096 758.047 905.095 759.105 905.093 760.195C905.088 763.568 905.075 766.94 905.062 770.312C905.057 772.602 905.053 774.892 905.049 777.182C905.038 782.788 905.021 788.394 905 794C903.35 795.65 901.7 797.3 900 799C896.7 799 893.4 799 890 799C888.68 797.35 887.36 795.7 886 794C885.985 792.734 885.971 791.468 885.956 790.164C885.898 785.447 885.82 780.73 885.738 776.013C885.704 773.975 885.676 771.938 885.654 769.9C885.62 766.963 885.568 764.026 885.512 761.09C885.505 760.185 885.499 759.281 885.492 758.349C885.416 755.022 885.322 752.001 884.299 748.818C883.601 747.181 882.81 745.584 882 744C881.01 743.34 880.02 742.68 879 742C876.36 742 873.72 742 871 742C868.03 743.98 865.06 745.96 862 748C861.67 748.66 861.34 749.32 861 750C860.67 764.52 860.34 779.04 860 794C858.68 795.65 857.36 797.3 856 799C852.7 799 849.4 799 846 799C844.68 797.68 843.36 796.36 842 795C841 792 841 792 840.88 789.361C840.882 788.302 840.884 787.243 840.886 786.152C840.887 784.951 840.887 783.75 840.887 782.512C840.892 781.215 840.897 779.918 840.902 778.582C840.904 777.241 840.906 775.9 840.907 774.559C840.91 771.033 840.92 767.507 840.931 763.98C840.942 760.381 840.946 756.781 840.951 753.182C840.962 746.121 840.979 739.061 841 732C841.66 730.68 842.32 729.36 843 728C843.99 727.34 844.98 726.68 846 726C848.31 726 850.62 726 853 726C854.875 727.688 854.875 727.688 857 730C857.707 731.65 858.38 733.315 859 735C859.736 734.446 860.472 733.891 861.23 733.32C862.206 732.596 863.182 731.871 864.188 731.125C865.15 730.406 866.113 729.686 867.105 728.945C870 727 870 727 872.469 725.762C875.506 724.848 878.141 724.699 881.312 724.688Z" fill="#FFC703" fill-opacity="1.000000" fill-rule="nonzero"/>
		<path id="path" d="M1044 726C1045.98 726 1047.96 726 1050 726C1051.65 727.65 1053.3 729.3 1055 731C1060.33 747 1065.67 763 1071 779C1071.33 779 1071.66 779 1072 779C1072.16 778.377 1072.32 777.753 1072.49 777.111C1076.58 761.265 1080.67 745.485 1086 730C1087.32 728.68 1088.64 727.36 1090 726C1092.31 726.33 1094.62 726.66 1097 727C1099.47 728.98 1099.47 728.98 1102 731C1101.52 739.097 1099.16 746.187 1096.48 753.801C1096.03 755.127 1095.57 756.453 1095.11 757.779C1094.16 760.549 1093.19 763.316 1092.23 766.082C1091 769.592 1089.78 773.105 1088.57 776.62C1087.63 779.358 1086.68 782.094 1085.73 784.829C1085.07 786.742 1084.4 788.657 1083.74 790.571C1076.57 811.083 1076.57 811.083 1072.06 817.438C1069.34 820.772 1066.57 823.548 1063 826C1060.06 827.457 1057.23 828.387 1054 829C1049.98 829.222 1046.02 829.183 1042 829C1041.34 828.67 1040.68 828.34 1040 828C1039.85 825.575 1039.77 823.407 1040 821C1040.82 818.226 1041.87 815.674 1043 813C1048.44 812.505 1048.44 812.505 1054 812C1055.65 810.35 1057.3 808.7 1059 807C1059.66 805.02 1060.32 803.04 1061 801C1060.76 797.216 1060.3 793.897 1059.1 790.289C1057.89 787.155 1056.63 784.046 1055.34 780.941C1054.39 778.593 1053.45 776.245 1052.5 773.896C1051 770.224 1049.5 766.554 1047.99 762.884C1046.54 759.323 1045.1 755.758 1043.66 752.191C1042.98 750.56 1042.98 750.56 1042.29 748.895C1040.39 744.174 1038.78 739.817 1038.21 734.738C1038.11 732.888 1038.11 732.888 1038 731C1039.98 729.35 1041.96 727.7 1044 726Z" fill="#FFC804" fill-opacity="1.000000" fill-rule="nonzero"/>
		<path id="path" d="M580 832C582.97 832 585.94 832 589 832C585.607 836.196 582.117 839.872 578.062 843.438C573.63 847.362 569.792 851.467 566 856C565.167 856.945 564.334 857.89 563.477 858.863C555.749 867.675 548.687 876.909 543.266 887.336C541.977 890.21 540.862 892.972 540 896C539.672 898.824 539.726 901.154 540 904C540.99 905.65 541.98 907.3 543 909C544.072 909.474 545.145 909.949 546.25 910.438C546.853 910.704 547.457 910.971 548.078 911.246C550.093 912.036 551.866 912.607 554 913C556.597 913.123 559.153 913.19 561.75 913.188C562.489 913.188 563.228 913.189 563.99 913.189C571.749 913.117 579.338 912.155 587 911C587 908.03 587 905.06 587 902C588.264 899.862 589.449 897.926 591 896C592.926 894.45 594.862 893.264 597 892C600.63 892 604.26 892 608 892C610.049 893.257 612.041 894.606 614 896C616.375 898.75 616.375 898.75 618 901C618 901.66 618 902.32 618 903C649.472 892.305 679.93 880.203 710 866C711.12 865.473 712.241 864.947 713.396 864.404C734.689 854.366 755.441 843.472 776 832C779.63 832 783.26 832 787 832C784.33 834.669 782.486 835.981 779.23 837.715C778.272 838.229 777.313 838.744 776.325 839.274C775.29 839.823 774.254 840.372 773.188 840.938C770.976 842.119 768.765 843.301 766.555 844.484C765.443 845.078 764.332 845.672 763.187 846.283C760.383 847.794 757.597 849.331 754.82 850.891C712.554 874.575 667.339 894.72 621 909C620.34 909 619.68 909 619 909C618.34 911.31 617.68 913.62 617 916C615.02 917.98 613.04 919.96 611 922C608.375 923 608.375 923 605 924C601.625 924.125 601.625 924.125 599 924C597.686 923.189 596.374 922.376 595.062 921.562C594.332 921.11 593.601 920.658 592.848 920.191C591 919 591 919 590 918C587.958 918.142 585.916 918.289 583.875 918.438C582.17 918.559 582.17 918.559 580.43 918.684C577.079 918.943 577.079 918.943 574.117 919.52C567.183 920.588 559.991 920.451 553 920C549.399 919.433 546.279 918.593 543 917C540.489 915.469 538.3 913.85 536 912C535.01 910.02 534.02 908.04 533 906C532.656 902.613 532.668 899.39 533 896C534.536 890.088 536.959 884.665 540.055 879.41C544.502 872.184 549.521 865.476 555 859C555.904 857.91 556.807 856.82 557.711 855.73C564.71 847.362 572.176 839.597 580 832Z" fill="#FFC909" fill-opacity="1.000000" fill-rule="nonzero"/>
		<path id="path" d="M315 703C335.46 703 355.92 703 377 703C382 706 382 706 383 707C383 709.64 383 712.28 383 715C382.022 716.022 381.019 717.02 380 718C379.34 718.33 378.68 718.66 378 719C370.74 719 363.48 719 356 719C356 743.42 356 767.84 356 793C355.01 794.65 354.02 796.3 353 798C352.01 798.495 352.01 798.495 351 799C347.7 799 344.4 799 341 799C339.68 797.35 338.36 795.7 337 794C337 769.25 337 744.5 337 719C329.41 719 321.82 719 314 719C312.68 717.68 311.36 716.36 310 715C310 712.36 310 709.72 310 707C311.65 705.68 313.3 704.36 315 703Z" fill="#FFC700" fill-opacity="1.000000" fill-rule="nonzero"/>
		<path id="path" d="M1243.03 724.639C1244.25 724.663 1244.25 724.663 1245.5 724.688C1246.72 724.683 1246.72 724.683 1247.97 724.678C1251.85 724.712 1255.36 724.957 1259.09 726.02C1260.05 726.343 1261.01 726.667 1262 727C1264.47 729.475 1264.47 729.475 1267 732C1267 734.31 1267 736.62 1267 739C1266.01 739.99 1265.02 740.98 1264 742C1261.69 742 1259.38 742 1257 742C1256.01 741.34 1255.02 740.68 1254 740C1249.71 740 1245.42 740 1241 740C1239.68 741.32 1238.36 742.64 1237 744C1237 745.65 1237 747.3 1237 749C1238.46 749.728 1239.91 750.456 1241.37 751.184C1242.63 751.817 1243.9 752.45 1245.16 753.085C1248.24 754.63 1251.32 756.15 1254.43 757.625C1258.66 759.65 1262.42 761.523 1266.06 764.5C1268.15 767.198 1269.62 769.882 1271 773C1271 776.3 1271 779.6 1271 783C1269.35 786.3 1267.7 789.6 1266 793C1258.04 798.634 1258.04 798.634 1253.68 800.172C1247.8 801.496 1241.94 801.54 1235.95 801.204C1232.17 800.808 1228.83 799.628 1225.35 798.156C1222.13 796.572 1219.05 794.897 1216 793C1216.33 790.69 1216.66 788.38 1217 786C1218.32 784.68 1219.64 783.36 1221 782C1224.12 782.312 1224.12 782.312 1228 783C1229.98 783.99 1231.96 784.98 1234 786C1238.62 786 1243.24 786 1248 786C1249.32 784.68 1250.64 783.36 1252 782C1252 780.02 1252 778.04 1252 776C1247.7 772.917 1243.7 770.995 1238.69 769.188C1234.87 767.754 1231.45 766.294 1228.02 764.059C1225.95 762.43 1223.94 760.78 1222 759C1220.47 756.059 1219.1 753.128 1218 750C1217.69 747.222 1217.8 744.805 1218 742C1219.22 739.17 1220.4 736.616 1222 734C1224.12 731.638 1226.33 729.706 1229 728C1233.84 725.456 1237.57 724.634 1243.03 724.639Z" fill="#FFC703" fill-opacity="1.000000" fill-rule="nonzero"/>
		<path id="path" d="M1142.38 724.812C1143.1 724.8 1143.83 724.788 1144.59 724.775C1148.25 724.766 1151.5 725.003 1155.04 726.012C1156.02 726.338 1156.99 726.664 1158 727C1160.47 729.475 1160.47 729.475 1163 732C1163 734.31 1163 736.62 1163 739C1162.01 739.99 1161.02 740.98 1160 742C1157.69 742 1155.38 742 1153 742C1152.01 741.34 1151.02 740.68 1150 740C1145.71 740 1141.42 740 1137 740C1135.68 741.32 1134.36 742.64 1133 744C1133 745.65 1133 747.3 1133 749C1135.14 750.086 1137.29 751.169 1139.44 752.25C1140.08 752.572 1140.72 752.894 1141.38 753.226C1144.86 754.968 1148.35 756.616 1151.94 758.125C1156.07 759.906 1159.43 762.265 1163 765C1164.32 767.31 1165.64 769.62 1167 772C1167.25 775.7 1167.32 779.303 1167 783C1165.96 786.182 1164.62 789.075 1163 792C1159.85 794.649 1156.65 797.106 1153.03 799.066C1149.44 800.498 1146.11 800.99 1142.26 801.316C1136.99 801.537 1131.93 801.454 1126.77 800.238C1121.51 798.403 1116.72 795.938 1112 793C1112 791.35 1112 789.7 1112 788C1113.98 785.525 1113.98 785.525 1116 783C1118.97 782.505 1118.97 782.505 1122 782C1124.64 783.32 1127.28 784.64 1130 786C1134.62 786 1139.24 786 1144 786C1145.32 784.68 1146.64 783.36 1148 782C1148 780.02 1148 778.04 1148 776C1143.7 772.917 1139.7 770.995 1134.69 769.188C1130.87 767.754 1127.45 766.294 1124.02 764.059C1121.95 762.43 1119.94 760.78 1118 759C1117.01 757.02 1116.02 755.04 1115 753C1115 748.38 1115 743.76 1115 739C1116.92 736.172 1118.76 733.561 1121 731C1123.51 728.983 1126.06 727.32 1129 726C1133.4 724.777 1137.84 724.816 1142.38 724.812Z" fill="#FFC703" fill-opacity="1.000000" fill-rule="nonzero"/>
		<path id="path" d="M606 707C608.64 707 611.28 707 614 707C615.32 707.99 616.64 708.98 618 710C619 713 619 713 619.098 716.355C619.086 717.62 619.074 718.885 619.062 720.188C619.053 721.46 619.044 722.732 619.035 724.043C619.024 725.019 619.012 725.995 619 727C623.29 727 627.58 727 632 727C633.65 728.65 635.3 730.3 637 732C636.67 733.98 636.34 735.96 636 738C635.01 738.99 634.02 739.98 633 741C632.01 741.33 631.02 741.66 630 742C626.37 742 622.74 742 619 742C619.33 754.54 619.66 767.08 620 780C620.99 781.65 621.98 783.3 623 785C625.97 785.33 628.94 785.66 632 786C633.65 787.32 635.3 788.64 637 790C637 792.31 637 794.62 637 797C634.875 798.438 634.875 798.438 632 800C627.505 800.982 623.216 801.106 618.625 801.062C617.38 801.053 616.135 801.044 614.852 801.035C613.911 801.024 612.969 801.012 612 801C609.866 799.739 607.933 798.535 606 797C603.834 794.232 602.28 791.656 600.903 788.429C599.709 783.894 599.752 779.676 599.805 775.008C599.807 774.062 599.81 773.116 599.813 772.141C599.824 769.136 599.849 766.13 599.875 763.125C599.885 761.081 599.894 759.036 599.902 756.992C599.924 751.995 599.959 746.997 600 742C597.69 741.67 595.38 741.34 593 741C591.68 739.68 590.36 738.36 589 737C589 735.02 589 733.04 589 731C590.65 729.68 592.3 728.36 594 727C595.98 726.67 597.96 726.34 600 726C600.66 721.38 601.32 716.76 602 712C603.32 710.35 604.64 708.7 606 707Z" fill="#FFC704" fill-opacity="1.000000" fill-rule="nonzero"/>
		<path id="path" d="M978.75 619.75C979.879 619.729 981.008 619.709 982.172 619.688C987.543 619.663 992.425 619.884 997.609 621.363C999.914 622.107 1001.81 622.883 1003.87 624.161C1005.5 625.438 1005.5 625.438 1008 628C1008.7 629.314 1009.38 630.645 1010 632C1010.33 636.048 1010.37 639.953 1010 644C1008.15 650.445 1005.56 656.325 1002 662C999.69 662 997.38 662 995 662C995.494 660.964 995.987 659.927 996.496 658.859C997.143 657.49 997.791 656.12 998.438 654.75C998.763 654.068 999.089 653.386 999.424 652.684C999.893 651.688 999.893 651.688 1000.37 650.672C1000.8 649.761 1000.8 649.761 1001.24 648.831C1002.04 646.9 1002.57 645.043 1003 643C1003.09 641.314 1003.13 639.625 1003.12 637.938C1003.13 637.08 1003.13 636.223 1003.13 635.34C1003.09 632.844 1003.09 632.844 1002 630C1000.42 629.52 998.834 629.041 997.25 628.562C996.368 628.296 995.487 628.029 994.578 627.754C993.727 627.505 992.877 627.256 992 627C991.349 626.807 990.698 626.613 990.027 626.414C983.344 625.049 976.025 625.815 969.283 626.412C952.597 628.158 935.87 632.636 920 638C919.67 640.97 919.34 643.94 919 647C914.726 654.327 914.726 654.327 911.438 657.375C909 659 909 659 905 661C901.37 661 897.74 661 894 661C887.164 656.605 887.164 656.605 885 655C884.34 654.01 883.68 653.02 883 652C878.622 653.329 874.443 654.745 870.332 656.758C862.076 660.753 862.076 660.753 858 662C853.333 662.71 848.686 662.461 844 662C847.049 659.524 850.087 657.935 853.684 656.371C854.776 655.893 855.869 655.416 856.994 654.924C858.13 654.433 859.267 653.943 860.438 653.438C861.57 652.943 862.702 652.449 863.869 651.939C866.909 650.616 869.949 649.296 873 648C874.325 647.428 874.325 647.428 875.676 646.844C876.443 646.565 877.21 646.287 878 646C878.99 646 879.98 646 881 646C881 642.7 881 639.4 881 636C882.648 633.274 884.189 630.8 886.461 628.559C889.209 626.222 891.752 624.624 895 623C897.97 623 900.94 623 904 623C909.957 625.832 909.957 625.832 912 627C913.762 628.637 913.762 628.637 915 630C915 630.66 915 631.32 915 632C915.724 631.809 916.447 631.618 917.193 631.421C961.196 619.829 961.196 619.829 978.75 619.75Z" fill="#FFC90A" fill-opacity="1.000000" fill-rule="nonzero"/>
		<path id="path" d="M1006 696C1009.3 696 1012.6 696 1016 696C1017.35 697.311 1018.69 698.647 1020 700C1020.33 700.66 1020.66 701.32 1021 702C1021.49 742.59 1021.49 742.59 1022 784C1023.65 784.66 1025.3 785.32 1027 786C1028 788.125 1028 788.125 1029 791C1029.12 794.312 1029.12 794.312 1029 797C1027.02 797.99 1025.04 798.98 1023 800C1019.7 800 1016.4 800 1013 800C1010.95 798.743 1008.96 797.394 1007 796C1004.62 793.25 1004.62 793.25 1003 791C1001.84 786.849 1001.87 782.841 1001.89 778.56C1001.89 777.71 1001.89 776.861 1001.89 775.986C1001.89 773.184 1001.89 770.381 1001.9 767.578C1001.9 765.633 1001.91 763.688 1001.91 761.744C1001.91 756.628 1001.92 751.511 1001.93 746.395C1001.94 741.174 1001.95 735.952 1001.95 730.73C1001.96 720.487 1001.98 710.244 1002 700C1003.32 698.68 1004.64 697.36 1006 696Z" fill="#FFC804" fill-opacity="1.000000" fill-rule="nonzero"/>
		<path id="path" d="M448 719C453.28 719 458.56 719 464 719C468.061 720.859 471.365 722.452 474.75 725.375C477.163 728.19 479.19 730.754 481 734C482.576 738.148 482.949 742.272 483.258 746.68C483.471 752.12 483.315 757.314 482.312 762.676C481.41 765.936 480.416 768.928 479 772C477.171 774.694 475.343 776.71 473 779C471.563 779.648 470.126 780.293 468.688 780.938C467.887 781.297 467.086 781.657 466.262 782.027C464 783 464 783 461 784C456.71 784 452.42 784 448 784C448 762.55 448 741.1 448 719Z" fill="#545C64" fill-opacity="1.000000" fill-rule="nonzero"/>
		<path id="path" d="M1186 727C1189.3 727 1192.6 727 1196 727C1197.65 728.65 1199.3 730.3 1201 732C1201 751.8 1201 771.6 1201 792C1200.01 793.98 1199.02 795.96 1198 798C1197.01 798.495 1197.01 798.495 1196 799C1192.7 799 1189.4 799 1186 799C1184.68 797.35 1183.36 795.7 1182 794C1182 773.21 1182 752.42 1182 731C1183.32 729.68 1184.64 728.36 1186 727Z" fill="#FFC703" fill-opacity="1.000000" fill-rule="nonzero"/>
		<path id="path" d="M979.062 619.688C980.723 619.663 980.723 619.663 982.416 619.639C987.698 619.636 992.493 619.915 997.59 621.367C999.902 622.109 1001.81 622.88 1003.87 624.161C1005.5 625.438 1005.5 625.438 1008 628C1008.7 629.314 1009.38 630.645 1010 632C1010.33 636.048 1010.37 639.953 1010 644C1008.15 650.446 1005.56 656.325 1002 662C999.69 662 997.38 662 995 662C995.494 660.964 995.987 659.927 996.496 658.859C997.143 657.49 997.791 656.12 998.438 654.75C998.926 653.727 998.926 653.727 999.424 652.684C999.736 652.02 1000.05 651.356 1000.37 650.672C1000.8 649.761 1000.8 649.761 1001.24 648.831C1002.04 646.9 1002.57 645.043 1003 643C1003.09 641.314 1003.13 639.626 1003.12 637.938C1003.13 637.08 1003.13 636.223 1003.13 635.34C1003.09 632.844 1003.09 632.844 1002 630C1000.42 629.52 998.834 629.041 997.25 628.562C996.368 628.296 995.487 628.029 994.578 627.754C993.302 627.381 993.302 627.381 992 627C991.349 626.807 990.698 626.613 990.027 626.414C983.344 625.049 976.025 625.815 969.283 626.412C952.597 628.158 935.87 632.636 920 638C919.67 640.97 919.34 643.94 919 647C918.67 647 918.34 647 918 647C917.939 646.336 917.879 645.672 917.816 644.988C917.733 644.105 917.649 643.222 917.562 642.312C917.481 641.442 917.4 640.572 917.316 639.676C917.009 637.077 916.548 634.558 916 632C925.381 629.076 934.789 626.484 944.375 624.312C945.265 624.111 946.154 623.909 947.071 623.7C949.71 623.114 952.353 622.552 955 622C956.312 621.714 956.312 621.714 957.651 621.423C964.817 619.967 971.762 619.666 979.062 619.688Z" fill="#FFC90C" fill-opacity="1.000000" fill-rule="nonzero"/>
		<path id="path" d="M896 629C898.64 629 901.28 629 904 629C905.98 630.32 907.96 631.64 910 633C910.99 634.65 911.98 636.3 913 638C913 640.31 913 642.62 913 645C912.01 646.98 911.02 648.96 910 651C908.02 652.32 906.04 653.64 904 655C901.03 655 898.06 655 895 655C889.629 650.508 889.629 650.508 888 649C887.67 648.34 887.34 647.68 887 647C887 643.7 887 640.4 887 637C888.624 634.925 890.2 632.917 892 631C894.312 629.625 894.312 629.625 896 629Z" fill="#545C64" fill-opacity="1.000000" fill-rule="nonzero"/>
		<path id="path" d="M788 718C788.66 718 789.32 718 790 718C790.161 718.648 790.322 719.297 790.487 719.965C791.24 722.998 791.995 726.03 792.75 729.062C793.157 730.699 793.157 730.699 793.573 732.368C795.404 739.695 797.313 746.993 799.336 754.27C800 757 800 757 800 760C792.74 760 785.48 760 778 760C778.72 754.96 779.572 750.12 780.75 745.188C780.921 744.467 781.091 743.746 781.267 743.004C783.286 734.608 785.631 726.303 788 718Z" fill="#545C64" fill-opacity="1.000000" fill-rule="nonzero"/>
		<path id="path" d="M690 765C690 769.62 690 774.24 690 779C684.824 783.59 684.824 783.59 683 785C680 786 680 786 677.52 786.098C676.626 786.086 675.733 786.074 674.812 786.062C673.911 786.053 673.01 786.044 672.082 786.035C671.395 786.024 670.708 786.012 670 786C668.68 784.35 667.36 782.7 666 781C666 779.02 666 777.04 666 775C667.688 772.688 667.688 772.688 670 770C672.707 768.025 675.152 766.945 678.312 765.812C682.406 764.91 685.824 764.854 690 765Z" fill="#545C64" fill-opacity="1.000000" fill-rule="nonzero"/>
		<path id="path" d="M963 765C963 769.62 963 774.24 963 779C957.824 783.59 957.824 783.59 956 785C953 786 953 786 950.738 786.098C949.938 786.086 949.137 786.074 948.312 786.062C947.1 786.049 947.1 786.049 945.863 786.035C945.248 786.024 944.634 786.012 944 786C942.35 784.35 940.7 782.7 939 781C939 779.02 939 777.04 939 775C940.32 773.35 941.64 771.7 943 770C950.861 766.318 950.861 766.318 954.688 765.25C957.443 764.952 960.228 765 963 765Z" fill="#545C64" fill-opacity="1.000000" fill-rule="nonzero"/>
		<path id="path" d="M558 765C558 769.62 558 774.24 558 779C555.422 781.648 553.083 783.944 550 786C546.37 786 542.74 786 539 786C537.68 784.68 536.36 783.36 535 782C535 779.36 535 776.72 535 774C536.65 772.35 538.3 770.7 540 769C541.682 768.319 543.371 767.656 545.062 767C546.472 766.443 546.472 766.443 547.91 765.875C551 765 551 765 558 765Z" fill="#545C64" fill-opacity="1.000000" fill-rule="nonzero"/>
		<path id="path" d="M1187 694C1189.97 694 1192.94 694 1196 694C1197.65 695.32 1199.3 696.64 1201 698C1201.33 698.66 1201.66 699.32 1202 700C1202 702.97 1202 705.94 1202 709C1200.35 710.65 1198.7 712.3 1197 714C1196.01 714.33 1195.02 714.66 1194 715C1191.67 715.04 1189.33 715.044 1187 715C1185.02 713.35 1183.04 711.7 1181 710C1180.67 707.03 1180.34 704.06 1180 701C1183.71 696.41 1183.71 696.41 1185 695C1185.66 694.67 1186.32 694.34 1187 694Z" fill="#FFC806" fill-opacity="1.000000" fill-rule="nonzero"/>
	</g>
</svg>
